<svg xmlns="http://www.w3.org/2000/svg" viewBox="0 0 252.97 57.46" fill="currentColor">
  <path d="M46,39.74A15.89,15.89,0,0,1,44.4,47a14.69,14.69,0,0,1-4.19,5.15,19.32,19.32,0,0,1-6.83,3.48,35.69,35.69,0,0,1-9.47,1H1.83V1.47H21.32a69.62,69.62,0,0,1,9.21.46,17.75,17.75,0,0,1,5.87,2,10.58,10.58,0,0,1,4.42,4.26,12.54,12.54,0,0,1,1.47,6.15,13.09,13.09,0,0,1-2,7.19,11.92,11.92,0,0,1-5.58,4.63v.29a15.06,15.06,0,0,1,8.19,4.39Q46,34.11,46,39.74ZM28.21,17.07a6.29,6.29,0,0,0-.68-2.74,4.15,4.15,0,0,0-2.13-2,8.82,8.82,0,0,0-3.25-.65c-1.24,0-3.1-.06-5.57-.06h-1V23.25h1.75c2.37,0,4,0,5-.07a8,8,0,0,0,2.94-.78,4.42,4.42,0,0,0,2.3-2.15A7.52,7.52,0,0,0,28.21,17.07Zm3.48,22.41a6.77,6.77,0,0,0-1-4,6.39,6.39,0,0,0-3.12-2.19,10.6,10.6,0,0,0-3.46-.53q-2.2-.06-5.91-.06H15.61V46.52h.75c3.6,0,6.1,0,7.48-.08a11.43,11.43,0,0,0,4.22-1,5.5,5.5,0,0,0,2.76-2.39A7.23,7.23,0,0,0,31.69,39.48Z" transform="translate(-1.83 -0.32)"/>
  <path d="M104.12,29.07q0,13.38-7.15,21t-19.6,7.67q-12.48,0-19.6-7.76t-7.11-21q0-13.31,7.11-21T77.37.32Q89.82.32,97,8T104.12,29.07Zm-14.3,0a30,30,0,0,0-1-8.39A17.37,17.37,0,0,0,86.08,15a10.62,10.62,0,0,0-4-3.25,11.87,11.87,0,0,0-9.28-.07,11.14,11.14,0,0,0-4,3.24A16.7,16.7,0,0,0,66,20.59,29.79,29.79,0,0,0,65,29.07a29.93,29.93,0,0,0,1,8.43,17.28,17.28,0,0,0,2.74,5.61,10.44,10.44,0,0,0,4,3.28,11.68,11.68,0,0,0,4.67,1,11.14,11.14,0,0,0,4.74-1.06,10.27,10.27,0,0,0,4-3.27,18.05,18.05,0,0,0,2.74-5.62A29.57,29.57,0,0,0,89.82,29Z" transform="translate(-1.83 -0.32)"/>
  <path d="M159,56.63H142.9L132.31,39,121.49,56.63H106.15l17.9-27.78L106.86,1.47h16l9.93,16.63L143,1.47h15.37l-17.3,26.82Z" transform="translate(-1.83 -0.32)"/>
  <path d="M206.83,38a19.46,19.46,0,0,1-5.48,14.22q-5.49,5.56-15,5.57a24.64,24.64,0,0,1-8.54-1.38,16.82,16.82,0,0,1-6.36-4.06,20.61,20.61,0,0,1-4.79-8.17,38.39,38.39,0,0,1-1.65-12,48.18,48.18,0,0,1,1.54-12.8,26.85,26.85,0,0,1,5-9.9,22.38,22.38,0,0,1,8.76-6.38A32.41,32.41,0,0,1,193.1.82a40.76,40.76,0,0,1,5.39.35c1.81.23,3,.42,3.7.57V12.52h-1a20,20,0,0,0-8.21-1.7q-6.44,0-9.93,3.39t-4.31,9.71a28.37,28.37,0,0,1,5.47-2.76,18.08,18.08,0,0,1,6.27-1,19.17,19.17,0,0,1,5.54.79,14.21,14.21,0,0,1,9.12,8A21.1,21.1,0,0,1,206.83,38Zm-16,8.28a10.26,10.26,0,0,0,1.64-2.89,14.69,14.69,0,0,0,.57-4.73,12.15,12.15,0,0,0-.67-4.38,6.46,6.46,0,0,0-4.63-4.17,13.34,13.34,0,0,0-3.28-.39,12.43,12.43,0,0,0-3,.37,18,18,0,0,0-2.85.92c0,.24,0,.65,0,1.21s0,1.28,0,2.14a28.21,28.21,0,0,0,.82,7.57,11.91,11.91,0,0,0,2.08,4.35A5.65,5.65,0,0,0,183.7,48a6.73,6.73,0,0,0,2.6.51,6.09,6.09,0,0,0,2.39-.55A5.59,5.59,0,0,0,190.86,46.26Z" transform="translate(-1.83 -0.32)"/>
  <path d="M254.81,38a19.43,19.43,0,0,1-5.49,14.22q-5.48,5.56-15,5.57a24.64,24.64,0,0,1-8.54-1.38,16.94,16.94,0,0,1-6.37-4.06,20.59,20.59,0,0,1-4.78-8.17,38.39,38.39,0,0,1-1.65-12,48.18,48.18,0,0,1,1.54-12.8,26.85,26.85,0,0,1,5-9.9,22.38,22.38,0,0,1,8.76-6.38,32.41,32.41,0,0,1,12.8-2.3,40.76,40.76,0,0,1,5.39.35c1.81.23,3,.42,3.7.57V12.52h-1a20,20,0,0,0-8.21-1.7q-6.43,0-9.93,3.39t-4.31,9.71a28.37,28.37,0,0,1,5.47-2.76,18.08,18.08,0,0,1,6.27-1,19.17,19.17,0,0,1,5.54.79,14.21,14.21,0,0,1,9.12,8A21.1,21.1,0,0,1,254.81,38Zm-16,8.28a10.26,10.26,0,0,0,1.64-2.89,14.69,14.69,0,0,0,.57-4.73,12.37,12.37,0,0,0-.67-4.38,6.46,6.46,0,0,0-4.63-4.17,13.34,13.34,0,0,0-3.28-.39,12.43,12.43,0,0,0-3,.37,18,18,0,0,0-2.85.92c0,.24,0,.65,0,1.21s0,1.28,0,2.14a28.21,28.21,0,0,0,.82,7.57,11.91,11.91,0,0,0,2.08,4.35A5.65,5.65,0,0,0,231.68,48a6.73,6.73,0,0,0,2.6.51,6.09,6.09,0,0,0,2.39-.55A5.59,5.59,0,0,0,238.84,46.26Z" transform="translate(-1.83 -0.32)"/>
</svg>
